<?xml version="1.0" standalone="no"?>
<!DOCTYPE svg PUBLIC "-//W3C//DTD SVG 20010904//EN"
 "http://www.w3.org/TR/2001/REC-SVG-20010904/DTD/svg10.dtd">
<svg version="1.0" xmlns="http://www.w3.org/2000/svg"
 width="176.000000pt" height="176.000000pt" viewBox="0 0 176.000000 176.000000"
 preserveAspectRatio="xMidYMid meet">
<metadata>
Created by potrace 1.15, written by Peter Selinger 2001-2017
</metadata>
<g transform="translate(0.000000,176.000000) scale(0.100000,-0.100000)"
fill="#000000" stroke="none">
<path d="M60 1356 c0 -3 84 -150 187 -328 102 -178 239 -415 304 -528 143
-248 136 -236 141 -230 2 3 61 104 130 225 69 121 209 364 311 540 l184 320
-145 3 c-109 2 -149 -1 -157 -10 -7 -7 -81 -132 -164 -278 -84 -146 -156 -269
-160 -273 -5 -5 -15 7 -24 25 -9 18 -50 89 -91 158 l-74 125 155 5 155 5 64
118 c35 65 64 120 64 122 0 3 -198 5 -440 5 -242 0 -440 -2 -440 -4z"/>
<path d="M1262 1153 c-291 -505 -344 -596 -348 -608 -4 -10 123 -244 145 -267
4 -4 42 54 86 130 43 75 184 318 312 540 128 222 233 405 233 408 0 2 -69 4
-154 4 l-154 0 -120 -207z"/>
</g>
</svg>
